<?xml version="1.0" encoding="UTF-8" standalone="no"?>
<svg
   id="svg4155"
   version="1.1"
   viewBox="0 0 186.08844 102.669"
   height="102.669pt"
   width="186.08844pt"
   xml:space="preserve"
   inkscape:export-filename="curload.svg"
   inkscape:export-xdpi="71.96579"
   inkscape:export-ydpi="71.96579"
   xmlns:inkscape="http://www.inkscape.org/namespaces/inkscape"
   xmlns:sodipodi="http://sodipodi.sourceforge.net/DTD/sodipodi-0.dtd"
   xmlns="http://www.w3.org/2000/svg"
   xmlns:svg="http://www.w3.org/2000/svg"
   xmlns:rdf="http://www.w3.org/1999/02/22-rdf-syntax-ns#"
   xmlns:cc="http://creativecommons.org/ns#"
   xmlns:dc="http://purl.org/dc/elements/1.1/"><sodipodi:namedview
     id="namedview210"
     pagecolor="#ffffff"
     bordercolor="#000000"
     borderopacity="0.25"
     inkscape:showpageshadow="2"
     inkscape:pageopacity="0.0"
     inkscape:pagecheckerboard="0"
     inkscape:deskcolor="#d1d1d1"
     inkscape:document-units="pt"
     showgrid="false" /><metadata
     id="metadata4199"><rdf:RDF><cc:Work
         rdf:about=""><dc:format>image/svg+xml</dc:format><dc:type
           rdf:resource="http://purl.org/dc/dcmitype/StillImage" /><cc:license
           rdf:resource="http://creativecommons.org/licenses/by-sa/4.0/" /></cc:Work><cc:License
         rdf:about="http://creativecommons.org/licenses/by-sa/4.0/"><cc:permits
           rdf:resource="http://creativecommons.org/ns#Reproduction" /><cc:permits
           rdf:resource="http://creativecommons.org/ns#Distribution" /><cc:requires
           rdf:resource="http://creativecommons.org/ns#Notice" /><cc:requires
           rdf:resource="http://creativecommons.org/ns#Attribution" /><cc:permits
           rdf:resource="http://creativecommons.org/ns#DerivativeWorks" /><cc:requires
           rdf:resource="http://creativecommons.org/ns#ShareAlike" /></cc:License></rdf:RDF></metadata><defs
     id="defs4157" /><path
     style="display:inline;mix-blend-mode:normal;fill:#00cd9e;fill-opacity:1;fill-rule:nonzero;stroke:none;stroke-width:0.977071"
     d="m 128.08774,15.771366 c -2.67931,0 -4.84719,-2.171697 -4.84719,-4.847192 0,-2.6793139 2.16788,-4.8471906 4.84719,-4.8471906 2.6755,0 4.84718,2.1678767 4.84718,4.8471906 0,2.675495 -2.17168,4.847192 -4.84718,4.847192 M 79.947903,98.589592 c -2.67931,0 -4.84719,-2.171687 -4.84719,-4.847182 0,-2.679315 2.16788,-4.847192 4.84719,-4.847192 2.6755,0 4.84337,2.167877 4.84337,4.847192 0,2.675495 -2.16787,4.847182 -4.84337,4.847182 M 128.08774,2.050385 c -4.90063,0 -8.87379,3.9731624 -8.87379,8.873789 0,1.04577 0.26335,2.01902 0.5954,2.950296 L 78.180773,85.223571 c -4.02278,0.843486 -7.10666,4.244153 -7.10666,8.518839 0,4.900618 3.97316,8.87379 8.87379,8.87379 4.89681,0 8.86997,-3.973172 8.86997,-8.87379 0,-0.984712 -0.26335,-1.885444 -0.55723,-2.770915 L 130.09913,19.389578 c 3.90064,-0.935086 6.86239,-4.278507 6.86239,-8.465404 0,-4.9006266 -3.97317,-8.873789 -8.87378,-8.873789"
     id="path4177"
     inkscape:label="right slash" /><path
     style="display:inline;mix-blend-mode:normal;fill:#008fb9;fill-opacity:1;fill-rule:nonzero;stroke:none;stroke-width:0.975706"
     d="m 94.151063,16.00156 c -2.67932,0 -4.84719,-2.165633 -4.84719,-4.833656 0,-2.6718337 2.16787,-4.8336573 4.84719,-4.8336573 2.67549,0 4.84718,2.1618236 4.84718,4.8336573 0,2.668023 -2.17169,4.833656 -4.84718,4.833656 m -48.13984,82.58698 c -2.67931,0 -4.84719,-2.165623 -4.84719,-4.833648 0,-2.671833 2.16788,-4.833657 4.84719,-4.833657 2.67549,0 4.84337,2.161824 4.84337,4.833657 0,2.668025 -2.16788,4.833648 -4.84337,4.833648 M 94.151063,2.3188915 c -4.90063,0 -8.87379,3.9620685 -8.87379,8.8490125 0,1.042849 0.26335,2.013381 0.5954,2.942057 L 44.244094,85.259839 c -4.02278,0.841132 -7.106661,4.232303 -7.106661,8.495053 0,4.886935 3.973161,8.849018 8.87379,8.849018 4.896811,0 8.86997,-3.962083 8.86997,-8.849018 0,-0.981962 -0.26335,-1.880179 -0.55723,-2.763178 l 41.83849,-71.382045 c 3.900637,-0.932476 6.862387,-4.26656 6.862387,-8.441765 0,-4.886944 -3.973167,-8.8490125 -8.873777,-8.8490125"
     id="path4177-3"
     inkscape:label="left slash" /><path
     id="XMLID_224_"
     d="M 183.61084,88.063115 99.022973,2.5056916 C 97.437273,0.90120276 95.285423,0 93.042213,0 c -2.24378,0 -4.39507,0.90177256 -5.98134,2.5062614 L 2.4775125,88.063714 c -3.30335,3.341292 -3.30335,8.758218 0,12.099526 3.302786,3.34073 8.6587475,3.34128 11.9620985,0 L 93.042213,20.655831 171.64875,100.16324 c 1.65167,1.67068 3.8165,2.50571 5.98133,2.50571 2.16482,0 4.32966,-0.83503 5.98133,-2.50625 3.30278,-3.341367 3.30278,-8.758299 -5.7e-4,-12.099585 z"
     style="fill:#f0eee4;fill-opacity:1;stroke-width:0.567134"
     inkscape:label="arrow" /></svg>
